<svg width="85" height="75" viewBox="0 0 85 75" fill="none" xmlns="http://www.w3.org/2000/svg">
<path d="M60 37.4585C60 47.1235 52.165 54.9585 42.5 54.9585C32.835 54.9585 25 47.1235 25 37.4585C25 27.7935 32.835 19.9585 42.5 19.9585C52.165 19.9585 60 27.7935 60 37.4585ZM28.5 37.4585C28.5 45.1905 34.768 51.4585 42.5 51.4585C50.232 51.4585 56.5 45.1905 56.5 37.4585C56.5 29.7265 50.232 23.4585 42.5 23.4585C34.768 23.4585 28.5 29.7265 28.5 37.4585Z" fill="#FFFFFF"/>
<path d="M64 37.9585C64 36.3016 65.3431 34.9585 67 34.9585H82C83.6569 34.9585 85 36.3016 85 37.9585C85 39.6154 83.6569 40.9585 82 40.9585H67C65.3431 40.9585 64 39.6154 64 37.9585Z" fill="#FFFFFF"/>
<path d="M0 37.9585C0 36.3016 1.34315 34.9585 3 34.9585H18C19.6569 34.9585 21 36.3016 21 37.9585C21 39.6154 19.6569 40.9585 18 40.9585H3C1.34315 40.9585 0 39.6154 0 37.9585Z" fill="#FFFFFF"/>
<path d="M53.683 19.089C52.2481 18.2605 51.7565 16.4258 52.5849 14.9909L60.0849 2.00051C60.9134 0.565628 62.7481 0.0740023 64.183 0.902429C65.6179 1.73086 66.1095 3.56563 65.2811 5.00051L57.7811 17.9909C56.9527 19.4258 55.1179 19.9174 53.683 19.089Z" fill="#FFFFFF"/>
<path d="M21.683 74.5146C20.2481 73.6862 19.7565 71.8514 20.5849 70.4165L28.0849 57.4261C28.9134 55.9913 30.7481 55.4996 32.183 56.3281C33.6179 57.1565 34.1095 58.9913 33.2811 60.4261L25.7811 73.4165C24.9526 74.8514 23.1179 75.343 21.683 74.5146Z" fill="#FFFFFF"/>
<path d="M32.1829 18.589C30.7481 19.4174 28.9133 18.9258 28.0849 17.4909L20.5849 4.5005C19.7564 3.06562 20.2481 1.23085 21.683 0.402425C23.1178 -0.426002 24.9526 0.0656232 25.781 1.5005L33.281 14.4909C34.1095 15.9258 33.6178 17.7605 32.1829 18.589Z" fill="#FFFFFF"/>
<path d="M64.183 74.0146C62.7481 74.843 60.9133 74.3514 60.0849 72.9165L52.5849 59.9261C51.7564 58.4912 52.2481 56.6565 53.6829 55.828C55.1178 54.9996 56.9526 55.4912 57.781 56.9261L65.281 69.9165C66.1095 71.3514 65.6178 73.1862 64.183 74.0146Z" fill="#FFFFFF"/>
</svg>
